<svg t="1612442212227" class="icon" viewBox="0 0 1025 1024" version="1.1" xmlns="http://www.w3.org/2000/svg" p-id="3363" width="128" height="128"><path d="M64 7.04h320a64 64 0 0 1 64 64v384H64a64 64 0 0 1-64-64v-320a64 64 0 0 1 64-64zM961.92 452.48h-384v-384a64 64 0 0 1 64-64h320a64 64 0 0 1 64 64v320a64 64 0 0 1-64 64zM64 571.52h384v384a64 64 0 0 1-64 64H64a64 64 0 0 1-64-64v-320a64 64 0 0 1 64-64zM961.92 1016.96h-320a64 64 0 0 1-64-64v-384h384a64 64 0 0 1 64 64v320a64 64 0 0 1-64 64z" p-id="3364"></path></svg>